<?xml version="1.0" encoding="utf-8"?>
<!-- Generator: Adobe Illustrator 23.0.1, SVG Export Plug-In . SVG Version: 6.00 Build 0)  -->
<svg version="1.1" xmlns="http://www.w3.org/2000/svg" xmlns:xlink="http://www.w3.org/1999/xlink" x="0px" y="0px"
	 viewBox="0 0 512 512" style="enable-background:new 0 0 512 512;" xml:space="preserve">
<style type="text/css">
	.st0{fill:none;}
</style>
<g id="Layer_2">
	<g>
		<path d="M412.97,177.8l-13.39,0.4l0.77,5.98l12.8-0.38c0.05,0,0.1,0,0.15,0c2.69,0,4.91,2.15,5,4.85l1.46,48.88
			c0.04,1.33-0.44,2.59-1.36,3.57s-2.16,1.54-3.48,1.58l-6.98,0.21l0.77,5.98l6.38-0.19c2.93-0.09,5.65-1.32,7.67-3.46
			c2.02-2.14,3.08-4.94,3-7.86l-1.46-48.88C424.11,182.4,419.07,177.6,412.97,177.8z"/>
		<path d="M416.36,262.28l-5.89,0.18l0.77,5.98l5.3-0.16c0.05,0,0.1,0,0.15,0c2.69,0,4.92,2.15,5,4.85l2.97,99.15l7.81,60.48
			l-4.78-159.81C427.5,266.88,422.4,262.11,416.36,262.28z"/>
		<path d="M446.16,88.3c-0.3-10.2-8.85-18.27-19.04-17.94l-41.31,1.24l1.67,12.96l40.02-1.2c0.06,0,0.11,0,0.17,0
			c2.96,0,5.41,2.36,5.5,5.34l11.29,377.5c0.09,3.03-2.3,5.57-5.33,5.66l-186.69,5.58l-59.45,7.68c0.47,0.57,0.97,1.11,1.52,1.63
			c3.47,3.26,7.94,5.04,12.66,5.04c0.19,0,0.38,0,0.56-0.01l231.78-6.93c10.2-0.3,18.24-8.85,17.94-19.04L446.16,88.3z"/>
		<path d="M411.13,93.57l-22.4,0.67l0.77,5.98l21.81-0.65c0.05,0,0.1,0,0.15,0c2.69,0,4.92,2.15,5,4.85l1.46,48.88
			c0.08,2.76-2.09,5.06-4.85,5.15l-15.99,0.48l0.77,5.98l15.39-0.46c6.06-0.18,10.85-5.26,10.67-11.32l-1.46-48.88
			C422.28,98.18,417.2,93.38,411.13,93.57z"/>
	</g>
</g>
<g id="Layer_1">
	<g>
		<path d="M372.59,216c-0.38-2.91-1.87-5.5-4.2-7.29c-2.33-1.8-5.21-2.58-8.12-2.21l-3.98,0.51l1.34,5.88l3.42-0.44
			c0.21-0.03,0.43-0.04,0.64-0.04c1.09,0,2.16,0.36,3.05,1.05c1.06,0.82,1.74,2,1.91,3.31l10.7,82.86l8.5,37.39
			c1.22-2.04,1.8-4.49,1.47-7.03L372.59,216z"/>
		<path d="M424.43,430.75L375.6,52.72c-1.31-10.12-10.59-17.29-20.72-15.98l-58.45,7.55c6.59,3.83,12.73,7.61,17.51,10.85l42.61-5.5
			c0.24-0.03,0.47-0.05,0.71-0.05c2.72,0,5.09,2.03,5.45,4.8l48.83,378.03c0.39,3.01-1.74,5.77-4.75,6.16L249.49,458.9l-83.79,18.25
			c3.19,2.54,7.21,4.04,11.49,4.04c0.79,0,1.58-0.05,2.38-0.15l228.89-29.57C418.57,450.16,425.74,440.87,424.43,430.75z"/>
		<path d="M353.69,71.08c-0.78-6.02-6.3-10.28-12.32-9.5l-17.63,2.28l1.34,5.88l17.07-2.2c0.22-0.03,0.43-0.04,0.64-0.04
			c2.47,0,4.63,1.84,4.96,4.36l14.72,113.98c0.17,1.32-0.19,2.63-1.01,3.69s-2,1.74-3.31,1.91l-5.25,0.68l1.34,5.88l4.68-0.61
			c2.91-0.38,5.5-1.87,7.29-4.2c1.8-2.33,2.58-5.22,2.21-8.12L353.69,71.08z"/>
	</g>
	<g>
		<path class="st0" d="M58.1,85.68l83.23,376.52c0.41,1.84,2.23,3,4.07,2.6l232.99-51.5c1.84-0.41,3-2.23,2.6-4.07L305.76,68.91
			l-29.54,6.53c-5.5,1.22-11-2.29-12.21-7.79l-6.53-29.54L60.7,81.61C58.86,82.01,57.69,83.84,58.1,85.68z"/>
		<path d="M380.98,409.23c0.41,1.84-0.76,3.66-2.6,4.07L145.4,464.8c-1.84,0.41-3.66-0.76-4.07-2.6L58.1,85.68
			c-0.41-1.84,0.76-3.66,2.6-4.07l196.78-43.5l-2.58-11.67L58.12,69.94c-8.27,1.83-13.51,10.05-11.69,18.32l83.23,376.52
			c1.83,8.27,10.05,13.51,18.32,11.69l232.99-51.5c8.27-1.83,13.51-10.05,11.69-18.32L317.42,66.33l-11.67,2.58L380.98,409.23z"/>
		<path d="M253.81,76.9l-8-36.21l11.67-2.58l8,36.21c0.41,1.84,2.23,3,4.07,2.6l36.21-8l2.58,11.67l-36.21,8
			C263.85,90.41,255.64,85.17,253.81,76.9z"/>
	</g>
	<rect x="278.9" y="13.28" transform="matrix(0.5378 -0.8431 0.8431 0.5378 88.618 262.3873)" width="9.44" height="74.17"/>
	<path d="M114.39,256.62c-3.44,0-6.55-2.39-7.32-5.88L72.72,95.37c-0.89-4.04,1.67-8.05,5.7-8.94l95.72-21.16
		c4.04-0.89,8.05,1.67,8.94,5.7l34.34,155.36c0.43,1.95,0.07,3.96-1,5.65c-1.08,1.69-2.75,2.86-4.7,3.29l-95.72,21.16
		C115.46,256.56,114.92,256.62,114.39,256.62z M175.77,70.09c-0.18,0-0.36,0.02-0.54,0.06L79.51,91.31c-1.35,0.3-2.2,1.63-1.9,2.98
		l34.34,155.36c0.3,1.35,1.64,2.2,2.98,1.9l95.72-21.16c0.65-0.14,1.2-0.53,1.56-1.1c0.36-0.57,0.48-1.23,0.34-1.88L178.21,72.06
		C177.95,70.89,176.92,70.09,175.77,70.09z"/>
	<path d="M234.35,230.78c-1.41,0-2.8-0.4-4.02-1.18c-1.69-1.08-2.86-2.75-3.29-4.7l-18.65-84.39c-0.43-1.95-0.07-3.96,1-5.65
		s2.75-2.86,4.7-3.29l84.39-18.65c1.95-0.43,3.96-0.07,5.65,1c1.69,1.08,2.86,2.75,3.29,4.7L326.07,203c0.43,1.95,0.07,3.96-1,5.65
		c-1.08,1.69-2.75,2.86-4.7,3.29l-84.39,18.65C235.44,230.72,234.89,230.78,234.35,230.78z M300.09,117.73
		c-0.18,0-0.36,0.02-0.54,0.06l-84.39,18.65c-0.65,0.14-1.2,0.53-1.56,1.1c-0.36,0.57-0.48,1.23-0.34,1.88l18.65,84.39
		c0.14,0.65,0.53,1.2,1.1,1.56c0.57,0.36,1.24,0.48,1.88,0.34l84.39-18.65c0.65-0.14,1.2-0.53,1.56-1.1
		c0.36-0.57,0.48-1.23,0.34-1.88l-18.65-84.39c-0.14-0.65-0.53-1.2-1.1-1.56C301.03,117.86,300.56,117.73,300.09,117.73z"/>
	<path d="M137.53,361.33c-3.44,0-6.55-2.39-7.32-5.88l-18.65-84.39c-0.89-4.04,1.67-8.05,5.7-8.94l204.22-45.14
		c4.04-0.89,8.05,1.67,8.94,5.7l18.65,84.39c0.89,4.04-1.67,8.05-5.71,8.94l-204.22,45.14
		C138.61,361.27,138.06,361.33,137.53,361.33z M323.1,221.79c-0.18,0-0.36,0.02-0.54,0.06l-204.22,45.14
		c-1.35,0.3-2.2,1.63-1.9,2.98l18.65,84.39c0.3,1.35,1.63,2.2,2.98,1.9l204.22-45.14c1.35-0.3,2.2-1.63,1.9-2.98l-18.65-84.39
		C325.28,222.59,324.25,221.79,323.1,221.79z"/>
	<path d="M157.62,452.21c-3.44,0-6.55-2.39-7.32-5.88l-15.85-71.73c-0.89-4.04,1.67-8.05,5.7-8.94l61.98-13.7
		c4.03-0.89,8.05,1.67,8.94,5.71l15.85,71.73c0.89,4.04-1.67,8.05-5.7,8.94l-61.98,13.7C158.7,452.15,158.15,452.21,157.62,452.21z
		 M203.74,356.78c-0.18,0-0.36,0.02-0.54,0.06l-61.98,13.7c-1.35,0.3-2.2,1.63-1.9,2.98l15.85,71.73c0.3,1.35,1.64,2.2,2.98,1.9
		l61.98-13.7c1.35-0.3,2.2-1.63,1.9-2.98l-15.85-71.73C205.92,357.57,204.89,356.78,203.74,356.78z"/>
	<path d="M240.72,433.84c-3.44,0-6.55-2.39-7.32-5.88l-15.85-71.73c-0.89-4.04,1.67-8.05,5.7-8.94l121.12-26.77
		c4.03-0.89,8.05,1.67,8.94,5.7l15.85,71.73c0.43,1.95,0.07,3.96-1,5.65c-1.08,1.69-2.75,2.86-4.7,3.29l-121.12,26.77
		C241.8,433.78,241.25,433.84,240.72,433.84z M345.99,325.33c-0.18,0-0.36,0.02-0.54,0.06l-121.12,26.77
		c-1.35,0.3-2.2,1.63-1.9,2.98l15.85,71.73c0.3,1.35,1.64,2.2,2.98,1.9L362.38,402c0.65-0.14,1.2-0.53,1.56-1.1
		c0.36-0.57,0.48-1.23,0.34-1.88l-15.85-71.73C348.17,326.13,347.13,325.33,345.99,325.33z"/>
	<path d="M293.79,78.4l5.07,22.95c0.25,1.15-0.47,2.29-1.62,2.54l-85.82,18.97c-1.15,0.25-2.29-0.47-2.54-1.62l-11.95-54.07
		c-0.25-1.15,0.47-2.29,1.62-2.54l55.25-12.21l-0.92-4.17l-55.25,12.21c-3.45,0.76-5.63,4.19-4.87,7.63l11.95,54.07
		c0.76,3.44,4.18,5.63,7.63,4.87l85.82-18.97c3.44-0.76,5.63-4.19,4.87-7.63l-5.07-22.95L293.79,78.4z"/>
</g>
</svg>
