<?xml version="1.0" encoding="utf-8"?>
<!-- Generator: Adobe Illustrator 23.0.1, SVG Export Plug-In . SVG Version: 6.00 Build 0)  -->
<svg version="1.1" id="Layer_1" xmlns="http://www.w3.org/2000/svg" xmlns:xlink="http://www.w3.org/1999/xlink" x="0px" y="0px"
	 viewBox="0 0 512 512" style="enable-background:new 0 0 512 512;" xml:space="preserve">
<style type="text/css">
	.st0{fill:none;}
</style>
<g>
	<path class="st0" d="M126.46,26.24V478c0,2.21,1.79,4,4,4H410c2.21,0,4-1.79,4-4V69.69h-35.44c-6.6,0-12-5.4-12-12V22.24h-236.1
		C128.26,22.24,126.46,24.04,126.46,26.24z"/>
	<path d="M414,478c0,2.21-1.79,4-4,4H130.46c-2.21,0-4-1.79-4-4V26.24c0-2.21,1.79-4,4-4h236.09v-14H130.46c-9.93,0-18,8.07-18,18
		V478c0,9.92,8.07,18,18,18H410c9.92,0,18-8.08,18-18V69.69h-14V478z"/>
	<path d="M352.56,65.69V22.24h14v43.44c0,2.21,1.79,4,4,4H414v14h-43.44C360.63,83.69,352.56,75.61,352.56,65.69z"/>
</g>
<rect x="387.83" y="-0.56" transform="matrix(0.7071 -0.7071 0.7071 0.7071 84.8874 290.7105)" width="11.06" height="86.9"/>
<path d="M265.23,235.8H148.67c-4.14,0-7.5-3.36-7.5-7.5V40.17c0-4.14,3.36-7.5,7.5-7.5h116.56c4.14,0,7.5,3.36,7.5,7.5V228.3
	C272.73,232.44,269.37,235.8,265.23,235.8z M148.67,37.67c-1.38,0-2.5,1.12-2.5,2.5V228.3c0,1.38,1.12,2.5,2.5,2.5h116.56
	c1.38,0,2.5-1.12,2.5-2.5V40.17c0-1.38-1.12-2.5-2.5-2.5H148.67z"/>
<path d="M395.41,236.57H292.44c-4.14,0-7.5-3.36-7.5-7.5V126.1c0-4.14,3.36-7.5,7.5-7.5h102.97c4.14,0,7.5,3.36,7.5,7.5v102.97
	C402.91,233.21,399.55,236.57,395.41,236.57z M292.44,123.6c-1.38,0-2.5,1.12-2.5,2.5v102.97c0,1.38,1.12,2.5,2.5,2.5h102.97
	c1.38,0,2.5-1.12,2.5-2.5V126.1c0-1.38-1.12-2.5-2.5-2.5H292.44z"/>
<path d="M395.41,361.43H148.67c-4.14,0-7.5-3.36-7.5-7.5V250.95c0-4.14,3.36-7.5,7.5-7.5h246.74c4.14,0,7.5,3.36,7.5,7.5v102.97
	C402.91,358.06,399.55,361.43,395.41,361.43z M148.67,248.45c-1.38,0-2.5,1.12-2.5,2.5v102.98c0,1.38,1.12,2.5,2.5,2.5h246.74
	c1.38,0,2.5-1.13,2.5-2.51V250.95c0-1.38-1.12-2.5-2.5-2.5H148.67z"/>
<path d="M224.74,470.46h-76.07c-4.14,0-7.5-3.36-7.5-7.5v-87.78c0-4.14,3.36-7.5,7.5-7.5h76.07c4.14,0,7.5,3.36,7.5,7.5v87.78
	C232.24,467.1,228.88,470.46,224.74,470.46z M148.67,372.68c-1.38,0-2.5,1.12-2.5,2.5v87.78c0,1.38,1.12,2.5,2.5,2.5h76.07
	c1.38,0,2.5-1.12,2.5-2.5v-87.78c0-1.38-1.12-2.5-2.5-2.5H148.67z"/>
<path d="M395.41,470.46H248.37c-4.14,0-7.5-3.36-7.5-7.5v-87.78c0-4.14,3.36-7.5,7.5-7.5h147.04c4.14,0,7.5,3.36,7.5,7.5v87.78
	C402.91,467.1,399.55,470.46,395.41,470.46z M248.37,372.68c-1.38,0-2.5,1.12-2.5,2.5v87.78c0,1.38,1.12,2.5,2.5,2.5h147.04
	c1.38,0,2.5-1.12,2.5-2.5v-87.78c0-1.38-1.12-2.5-2.5-2.5H248.37z"/>
<path d="M397.91,77.51v27.53c0,1.38-1.12,2.5-2.5,2.5H292.44c-1.38,0-2.5-1.12-2.5-2.5V40.17c0-1.38,1.12-2.5,2.5-2.5h66.29v-5
	h-66.29c-4.14,0-7.5,3.37-7.5,7.5v64.87c0,4.13,3.36,7.5,7.5,7.5h102.97c4.13,0,7.5-3.37,7.5-7.5V77.51H397.91z"/>
</svg>
