<?xml version="1.0" encoding="UTF-8" standalone="no"?>
<svg
   xmlns:dc="http://purl.org/dc/elements/1.1/"
   xmlns:cc="http://creativecommons.org/ns#"
   xmlns:rdf="http://www.w3.org/1999/02/22-rdf-syntax-ns#"
   xmlns:svg="http://www.w3.org/2000/svg"
   xmlns="http://www.w3.org/2000/svg"
   xml:space="preserve"
   style="enable-background:new 0 0 512 512;"
   viewBox="0 0 512 512"
   y="0px"
   x="0px"
   id="Layer_1"
   version="1.1"><metadata
   id="metadata1064"><rdf:RDF><cc:Work
       rdf:about=""><dc:format>image/svg+xml</dc:format><dc:type
         rdf:resource="http://purl.org/dc/dcmitype/StillImage" /><dc:title></dc:title></cc:Work></rdf:RDF></metadata><defs
   id="defs1062" />
<style
   id="style1035"
   type="text/css">
	.st0{fill:none;}
</style>








<path
   id="rect1066"
   d="M 102.11133 21.591797 C 96.64203 21.591797 92.105469 26.128365 92.105469 31.597656 L 92.105469 86.236328 L 43.34375 86.236328 C 38.888702 86.236328 35.228516 89.898468 35.228516 94.353516 L 35.228516 151.76367 C 35.228516 156.21872 38.888702 159.88086 43.34375 159.88086 L 92.105469 159.88086 L 92.105469 478.49023 C 92.105469 483.95953 96.64203 488.49609 102.11133 488.49609 L 427.10352 488.49609 C 432.57281 488.49609 437.10934 483.95953 437.10938 478.49023 L 437.10938 31.597656 C 437.10938 26.128365 432.57281 21.591797 427.10352 21.591797 L 102.11133 21.591797 z M 102.11133 30.152344 L 427.10352 30.152344 C 427.97829 30.152344 428.54883 30.722878 428.54883 31.597656 L 428.54883 52.302734 C 428.48243 52.297836 428.41926 52.283203 428.35156 52.283203 L 100.66602 52.283203 L 100.66602 31.597656 C 100.66602 30.722878 101.23655 30.152344 102.11133 30.152344 z M 428.54883 61.191406 L 428.54883 478.49023 C 428.54883 479.36501 427.97829 479.93555 427.10352 479.93555 L 102.11133 479.93555 C 101.23655 479.93555 100.66602 479.36501 100.66602 478.49023 L 100.66602 159.88086 L 330.29492 159.88086 C 334.74997 159.88086 338.41016 156.21872 338.41016 151.76367 L 338.41016 94.353516 C 338.41016 89.898468 334.74997 86.236328 330.29492 86.236328 L 100.66602 86.236328 L 100.66602 61.210938 L 428.35156 61.210938 C 428.41926 61.210938 428.48243 61.196304 428.54883 61.191406 z M 43.34375 91.017578 L 330.29492 91.017578 C 332.18394 91.017578 333.62891 92.464499 333.62891 94.353516 L 333.62891 151.76367 C 333.62891 153.65269 332.18394 155.09961 330.29492 155.09961 L 43.34375 155.09961 C 41.454733 155.09961 40.009766 153.65269 40.009766 151.76367 L 40.009766 94.353516 C 40.009766 92.464499 41.454733 91.017578 43.34375 91.017578 z "
   style="color:#000000;font-style:normal;font-variant:normal;font-weight:normal;font-stretch:normal;font-size:medium;line-height:normal;font-family:sans-serif;font-variant-ligatures:normal;font-variant-position:normal;font-variant-caps:normal;font-variant-numeric:normal;font-variant-alternates:normal;font-feature-settings:normal;text-indent:0;text-align:start;text-decoration:none;text-decoration-line:none;text-decoration-style:solid;text-decoration-color:#000000;letter-spacing:normal;word-spacing:normal;text-transform:none;writing-mode:lr-tb;direction:ltr;text-orientation:mixed;dominant-baseline:auto;baseline-shift:baseline;text-anchor:start;white-space:normal;shape-padding:0;clip-rule:nonzero;display:inline;overflow:visible;visibility:visible;opacity:1;isolation:auto;mix-blend-mode:normal;color-interpolation:sRGB;color-interpolation-filters:linearRGB;solid-color:#000000;solid-opacity:1;vector-effect:none;fill:#000000;fill-opacity:1;fill-rule:nonzero;stroke:none;stroke-width:8.56062984;stroke-linecap:round;stroke-linejoin:miter;stroke-miterlimit:4;stroke-dasharray:none;stroke-dashoffset:0;stroke-opacity:1;color-rendering:auto;image-rendering:auto;shape-rendering:auto;text-rendering:auto;enable-background:accumulate" /><circle
   r="6.0572853"
   cy="40.488171"
   cx="113.8132"
   id="path1106"
   style="fill:#000000;fill-opacity:1;stroke:none;stroke-width:8.56062984;stroke-linecap:round;stroke-linejoin:miter;stroke-miterlimit:4;stroke-dasharray:none;stroke-opacity:1" /><circle
   style="fill:#000000;fill-opacity:1;stroke:none;stroke-width:8.56062984;stroke-linecap:round;stroke-linejoin:miter;stroke-miterlimit:4;stroke-dasharray:none;stroke-opacity:1"
   id="circle1108"
   cx="131.02864"
   cy="40.488171"
   r="6.0572853" /><circle
   r="6.0572853"
   cy="40.488171"
   cx="147.60648"
   id="circle1110"
   style="fill:#000000;fill-opacity:1;stroke:none;stroke-width:8.56062984;stroke-linecap:round;stroke-linejoin:miter;stroke-miterlimit:4;stroke-dasharray:none;stroke-opacity:1" /><path
   id="rect1114"
   d="m 121.77148,167.85156 c -4.45504,0 -8.11718,3.66019 -8.11718,8.11524 v 57.41015 c 0,4.45505 3.66214,8.11719 8.11718,8.11719 H 408.7207 c 4.45505,0 8.11524,-3.66214 8.11524,-8.11719 V 175.9668 c 0,-4.45505 -3.66019,-8.11524 -8.11524,-8.11524 z m 0,4.78125 H 408.7207 c 1.88902,0 3.33399,1.44497 3.33399,3.33399 v 57.41015 c 0,1.88902 -1.44497,3.33594 -3.33399,3.33594 H 121.77148 c -1.88901,0 -3.33593,-1.44692 -3.33593,-3.33594 V 175.9668 c 0,-1.88902 1.44692,-3.33399 3.33593,-3.33399 z"
   style="color:#000000;font-style:normal;font-variant:normal;font-weight:normal;font-stretch:normal;font-size:medium;line-height:normal;font-family:sans-serif;font-variant-ligatures:normal;font-variant-position:normal;font-variant-caps:normal;font-variant-numeric:normal;font-variant-alternates:normal;font-feature-settings:normal;text-indent:0;text-align:start;text-decoration:none;text-decoration-line:none;text-decoration-style:solid;text-decoration-color:#000000;letter-spacing:normal;word-spacing:normal;text-transform:none;writing-mode:lr-tb;direction:ltr;text-orientation:mixed;dominant-baseline:auto;baseline-shift:baseline;text-anchor:start;white-space:normal;shape-padding:0;clip-rule:nonzero;display:inline;overflow:visible;visibility:visible;opacity:1;isolation:auto;mix-blend-mode:normal;color-interpolation:sRGB;color-interpolation-filters:linearRGB;solid-color:#000000;solid-opacity:1;vector-effect:none;fill:#000000;fill-opacity:1;fill-rule:nonzero;stroke:none;stroke-width:4.78110218;stroke-linecap:round;stroke-linejoin:miter;stroke-miterlimit:4;stroke-dasharray:none;stroke-dashoffset:0;stroke-opacity:1;color-rendering:auto;image-rendering:auto;shape-rendering:auto;text-rendering:auto;enable-background:accumulate" /><path
   id="rect1118"
   d="m 121.77148,249.46484 c -4.45504,0 -8.11718,3.66214 -8.11718,8.11719 v 57.41016 c 0,4.45505 3.66214,8.11523 8.11718,8.11523 H 408.7207 c 4.45505,0 8.11524,-3.66018 8.11524,-8.11523 v -57.41016 c 0,-4.45505 -3.66019,-8.11719 -8.11524,-8.11719 z m 0,4.78125 H 408.7207 c 1.88902,0 3.33399,1.44692 3.33399,3.33594 v 57.41016 c 0,1.88901 -1.44497,3.33398 -3.33399,3.33398 H 121.77148 c -1.88901,0 -3.33593,-1.44497 -3.33593,-3.33398 v -57.41016 c 0,-1.88902 1.44692,-3.33594 3.33593,-3.33594 z"
   style="color:#000000;font-style:normal;font-variant:normal;font-weight:normal;font-stretch:normal;font-size:medium;line-height:normal;font-family:sans-serif;font-variant-ligatures:normal;font-variant-position:normal;font-variant-caps:normal;font-variant-numeric:normal;font-variant-alternates:normal;font-feature-settings:normal;text-indent:0;text-align:start;text-decoration:none;text-decoration-line:none;text-decoration-style:solid;text-decoration-color:#000000;letter-spacing:normal;word-spacing:normal;text-transform:none;writing-mode:lr-tb;direction:ltr;text-orientation:mixed;dominant-baseline:auto;baseline-shift:baseline;text-anchor:start;white-space:normal;shape-padding:0;clip-rule:nonzero;display:inline;overflow:visible;visibility:visible;opacity:1;isolation:auto;mix-blend-mode:normal;color-interpolation:sRGB;color-interpolation-filters:linearRGB;solid-color:#000000;solid-opacity:1;vector-effect:none;fill:#000000;fill-opacity:1;fill-rule:nonzero;stroke:none;stroke-width:4.78110218;stroke-linecap:round;stroke-linejoin:miter;stroke-miterlimit:4;stroke-dasharray:none;stroke-dashoffset:0;stroke-opacity:1;color-rendering:auto;image-rendering:auto;shape-rendering:auto;text-rendering:auto;enable-background:accumulate" /><path
   id="rect1120"
   d="m 121.77148,391.01367 c -4.45504,0 -8.11718,3.66214 -8.11718,8.11719 v 57.41016 c 0,4.45504 3.66214,8.11523 8.11718,8.11523 H 408.7207 c 4.45505,0 8.11524,-3.66019 8.11524,-8.11523 v -57.41016 c 0,-4.45505 -3.66019,-8.11719 -8.11524,-8.11719 z m 0,4.78125 H 408.7207 c 1.88902,0 3.33399,1.44692 3.33399,3.33594 v 57.41016 c 0,1.88901 -1.44497,3.33398 -3.33399,3.33398 H 121.77148 c -1.88901,0 -3.33593,-1.44497 -3.33593,-3.33398 v -57.41016 c 0,-1.88902 1.44692,-3.33594 3.33593,-3.33594 z"
   style="color:#000000;font-style:normal;font-variant:normal;font-weight:normal;font-stretch:normal;font-size:medium;line-height:normal;font-family:sans-serif;font-variant-ligatures:normal;font-variant-position:normal;font-variant-caps:normal;font-variant-numeric:normal;font-variant-alternates:normal;font-feature-settings:normal;text-indent:0;text-align:start;text-decoration:none;text-decoration-line:none;text-decoration-style:solid;text-decoration-color:#000000;letter-spacing:normal;word-spacing:normal;text-transform:none;writing-mode:lr-tb;direction:ltr;text-orientation:mixed;dominant-baseline:auto;baseline-shift:baseline;text-anchor:start;white-space:normal;shape-padding:0;clip-rule:nonzero;display:inline;overflow:visible;visibility:visible;opacity:1;isolation:auto;mix-blend-mode:normal;color-interpolation:sRGB;color-interpolation-filters:linearRGB;solid-color:#000000;solid-opacity:1;vector-effect:none;fill:#000000;fill-opacity:1;fill-rule:nonzero;stroke:none;stroke-width:4.78110218;stroke-linecap:round;stroke-linejoin:miter;stroke-miterlimit:4;stroke-dasharray:none;stroke-dashoffset:0;stroke-opacity:1;color-rendering:auto;image-rendering:auto;shape-rendering:auto;text-rendering:auto;enable-background:accumulate" /></svg>