<?xml version="1.0" encoding="utf-8"?>
<!-- Generator: Adobe Illustrator 23.0.1, SVG Export Plug-In . SVG Version: 6.00 Build 0)  -->
<svg version="1.1" id="Layer_1" xmlns="http://www.w3.org/2000/svg" xmlns:xlink="http://www.w3.org/1999/xlink" x="0px" y="0px"
	 viewBox="0 0 512 512" style="enable-background:new 0 0 512 512;" xml:space="preserve">
<style type="text/css">
	.st0{fill:#FFFFFF;stroke:#231F20;stroke-miterlimit:10;}
</style>
<path class="st0" d="M415.98,221.47"/>
<path d="M259,5C121.67,5,10.33,116.33,10.33,253.67S121.67,502.33,259,502.33S507.67,391,507.67,253.67S396.33,5,259,5z
	 M105.57,97.81c50.31-42.56,96.46-52.02,96.46-52.02s33.06,3.47,48.83,5.67c-5.3,1.87-11.23,4.16-17.68,6.99
	c-23.88,10.46-59.6,30.39-96.77,66.48l-32.42-25.76C104.51,98.72,105.04,98.27,105.57,97.81z M58.11,250.7
	c-5.93-18.84-16.22-54.87-16.22-54.87s11.3-46.86,52.2-87.48l28.77,30.44c-34.2,36.94-51.13,71.42-59.38,94.51
	C61.21,239.66,59.46,245.49,58.11,250.7z M115.46,397.81c0,0-35.33-85.71-51.02-128.65c1.11-7.49,3.49-18.93,8.57-33.05
	c7.92-21.98,24.11-54.78,56.68-90.1L214.77,236C126.23,327.32,115.46,397.81,115.46,397.81z M243.38,208.34
	c-0.32,0.29-0.62,0.58-0.94,0.86l-98.21-78.04c35.61-34.34,69.68-53.39,92.5-63.43c15.67-6.9,28.2-10.56,35.77-12.4
	c64.42,13.49,147.85,45.76,147.85,45.76S358.32,103.98,243.38,208.34z"/>
</svg>
