<?xml version="1.0" encoding="UTF-8" standalone="no"?>
<svg
   xmlns:dc="http://purl.org/dc/elements/1.1/"
   xmlns:cc="http://creativecommons.org/ns#"
   xmlns:rdf="http://www.w3.org/1999/02/22-rdf-syntax-ns#"
   xmlns:svg="http://www.w3.org/2000/svg"
   xmlns="http://www.w3.org/2000/svg"
   xml:space="preserve"
   style="enable-background:new 0 0 512 512;"
   viewBox="0 0 512 512"
   y="0px"
   x="0px"
   id="Layer_1"
   version="1.1"><metadata
   id="metadata288"><rdf:RDF><cc:Work
       rdf:about=""><dc:format>image/svg+xml</dc:format><dc:type
         rdf:resource="http://purl.org/dc/dcmitype/StillImage" /><dc:title></dc:title></cc:Work></rdf:RDF></metadata><defs
   id="defs286" />
<style
   id="style259"
   type="text/css">
	.st0{fill:none;}
</style>








<g
   id="g1226"><g
     id="g267">
	<path
   class="st0"
   d="M126.46,26.24V478c0,2.21,1.79,4,4,4H410c2.21,0,4-1.79,4-4V69.69h-35.44c-6.6,0-12-5.4-12-12V22.24h-236.1   C128.26,22.24,126.46,24.04,126.46,26.24z"
   id="path261" />
	<path
   id="path263"
   d="m 130.46094,8.2402344 c -9.93,0 -18,8.0699996 -18,17.9999996 V 478 c 0,9.92 8.07,18 18,18 H 410 c 9.92,0 18,-8.08 18,-18 v -99.70703 l -14,22.38476 V 478 c 0,2.21 -1.79,4 -4,4 H 130.46094 c -2.21,0 -4,-1.79 -4,-4 V 26.240234 c 0,-2.21 1.79,-4 4,-4 H 366.55078 V 8.2402344 Z M 414,69.689453 V 289.65039 l 14,-22.38281 V 69.689453 Z" />
	<path
   d="M352.56,65.69V22.24h14v43.44c0,2.21,1.79,4,4,4H414v14h-43.44C360.63,83.69,352.56,75.61,352.56,65.69z"
   id="path265" />
</g><rect
     x="387.83"
     y="-0.56"
     transform="matrix(0.7071 -0.7071 0.7071 0.7071 84.8874 290.7105)"
     width="11.06"
     height="86.9"
     id="rect269" /><path
     d="M265.23,235.8H148.67c-4.14,0-7.5-3.36-7.5-7.5V40.17c0-4.14,3.36-7.5,7.5-7.5h116.56c4.14,0,7.5,3.36,7.5,7.5V228.3  C272.73,232.44,269.37,235.8,265.23,235.8z M148.67,37.67c-1.38,0-2.5,1.12-2.5,2.5V228.3c0,1.38,1.12,2.5,2.5,2.5h116.56  c1.38,0,2.5-1.12,2.5-2.5V40.17c0-1.38-1.12-2.5-2.5-2.5H148.67z"
     id="path271" /><path
     d="M395.41,236.57H292.44c-4.14,0-7.5-3.36-7.5-7.5V126.1c0-4.14,3.36-7.5,7.5-7.5h102.97c4.14,0,7.5,3.36,7.5,7.5v102.97  C402.91,233.21,399.55,236.57,395.41,236.57z M292.44,123.6c-1.38,0-2.5,1.12-2.5,2.5v102.97c0,1.38,1.12,2.5,2.5,2.5h102.97  c1.38,0,2.5-1.12,2.5-2.5V126.1c0-1.38-1.12-2.5-2.5-2.5H292.44z"
     id="path273" /><path
     id="path275"
     d="M 148.66992 243.44922 C 144.52992 243.44922 141.16992 246.80922 141.16992 250.94922 L 141.16992 353.92969 C 141.16992 358.06969 144.52992 361.42969 148.66992 361.42969 L 274.79102 361.42969 C 274.90863 361.22042 275.01226 361.00602 275.14062 360.80078 L 277.875 356.42969 L 148.66992 356.42969 C 147.28992 356.42969 146.16992 355.30969 146.16992 353.92969 L 146.16992 250.94922 C 146.16992 249.56922 147.28992 248.44922 148.66992 248.44922 L 395.41016 248.44922 C 396.79016 248.44922 397.91016 249.56922 397.91016 250.94922 L 397.91016 315.375 L 402.91016 307.38086 L 402.91016 250.94922 C 402.91016 246.80922 399.55016 243.44922 395.41016 243.44922 L 148.66992 243.44922 z M 349.11719 356.42969 L 357.11133 361.42969 L 369.10547 361.42969 L 372.23242 356.42969 L 349.11719 356.42969 z " /><path
     d="M224.74,470.46h-76.07c-4.14,0-7.5-3.36-7.5-7.5v-87.78c0-4.14,3.36-7.5,7.5-7.5h76.07c4.14,0,7.5,3.36,7.5,7.5v87.78  C232.24,467.1,228.88,470.46,224.74,470.46z M148.67,372.68c-1.38,0-2.5,1.12-2.5,2.5v87.78c0,1.38,1.12,2.5,2.5,2.5h76.07  c1.38,0,2.5-1.12,2.5-2.5v-87.78c0-1.38-1.12-2.5-2.5-2.5H148.67z"
     id="path277" /><path
     id="path279"
     d="m 248.36914,367.67969 c -4.14,0 -7.5,3.36 -7.5,7.5 v 87.78125 c 0,4.14 3.36,7.5 7.5,7.5 h 147.04102 c 4.14,0 7.5,-3.36 7.5,-7.5 V 418.4082 l -5,7.99414 v 36.5586 c 0,1.38 -1.12,2.5 -2.5,2.5 H 248.36914 c -1.38,0 -2.5,-1.12 -2.5,-2.5 v -87.78125 c 0,-1.38 1.12,-2.5 2.5,-2.5 h 24.80274 c -0.36239,-1.63518 -0.46536,-3.32329 -0.31446,-5 z" /><path
     d="M397.91,77.51v27.53c0,1.38-1.12,2.5-2.5,2.5H292.44c-1.38,0-2.5-1.12-2.5-2.5V40.17c0-1.38,1.12-2.5,2.5-2.5h66.29v-5  h-66.29c-4.14,0-7.5,3.37-7.5,7.5v64.87c0,4.13,3.36,7.5,7.5,7.5h102.97c4.13,0,7.5-3.37,7.5-7.5V77.51H397.91z"
     id="path281" /><path
     d="m 248.36914,367.67969 c -4.14,0 -7.5,3.36 -7.5,7.5 v 87.78125 c 0,4.14 3.36,7.5 7.5,7.5 h 147.04102 c 4.14,0 7.5,-3.36 7.5,-7.5 V 418.4082 l -5,7.99414 v 36.5586 c 0,1.38 -1.12,2.5 -2.5,2.5 H 248.36914 c -1.38,0 -2.5,-1.12 -2.5,-2.5 v -87.78125 c 0,-1.38 1.12,-2.5 2.5,-2.5 h 24.80274 c -0.36239,-1.63518 -0.46536,-3.32329 -0.31446,-5 z"
     id="path1196" /><path
     id="rect94"
     style="fill:#000000;fill-rule:evenodd;stroke-width:0.472145"
     d="m 462.62109,236.32577 c -1.85989,0.0642 -3.65231,1.02357 -4.71761,2.72682 L 368.97151,381.2408 307.65245,342.88893 c -2.72519,-1.70447 -6.29138,-0.88308 -7.99584,1.84211 l -13.97881,22.35042 c -1.70446,2.72519 -0.88227,6.29137 1.84293,7.99582 l 66.23845,41.42835 22.34961,13.97881 c 2.72517,1.70445 6.29137,0.88308 7.99582,-1.84211 l 13.97882,-22.35042 92.0076,-147.1076 c 1.70447,-2.7252 0.88306,-6.29056 -1.84211,-7.99502 l -22.3496,-13.97881 c -1.02195,-0.63917 -2.1623,-0.92318 -3.27823,-0.88471 z" /></g></svg>
