<?xml version="1.0" encoding="UTF-8" standalone="no"?>
<svg
   xmlns:dc="http://purl.org/dc/elements/1.1/"
   xmlns:cc="http://creativecommons.org/ns#"
   xmlns:rdf="http://www.w3.org/1999/02/22-rdf-syntax-ns#"
   xmlns:svg="http://www.w3.org/2000/svg"
   xmlns="http://www.w3.org/2000/svg"
   width="512"
   height="512"
   viewBox="0 0 135.46666 135.46667"
   version="1.1"
   id="svg821">
  <defs
     id="defs815" />
  <metadata
     id="metadata818">
    <rdf:RDF>
      <cc:Work
         rdf:about="">
        <dc:format>image/svg+xml</dc:format>
        <dc:type
           rdf:resource="http://purl.org/dc/dcmitype/StillImage" />
        <dc:title></dc:title>
      </cc:Work>
    </rdf:RDF>
  </metadata>
  <path
     d="M 98.319763,35.067695 A 61.689341,61.689341 0 0 0 21.573214,51.589051 L 19.221549,35.868413 C 18.975942,34.226546 17.45639,33.102254 15.814527,33.347853 L 4.4806715,35.043488 c -1.6418632,0.245601 -2.7661616,1.765155 -2.5205621,3.407024 l 4.5435877,30.373113 c 1.926e-4,0.0012 1.155e-4,0.0025 3.081e-4,0.0038 l 1.695634,11.33385 c 0.1074493,0.718314 0.4586501,1.337667 0.9573415,1.786427 0.071227,0.06411 0.1453962,0.124552 0.2223756,0.181495 0.6158508,0.455707 1.4062357,0.675458 2.2273057,0.552638 l 41.710703,-6.239553 c 1.641871,-0.2456 2.766162,-1.765162 2.520562,-3.407023 l -1.695634,-11.33385 c -0.245599,-1.64186 -1.764805,-2.765978 -3.406676,-2.520377 l -15.866886,2.373609 a 45.081273,45.081273 0 0 1 55.826066,-11.732679 45.081273,45.081273 0 0 1 19.298183,60.763448 45.081273,45.081273 0 0 1 -0.43852,0.82508 l 14.74992,7.63932 a 61.689341,61.689341 0 0 0 0.43607,-0.82635 61.689341,61.689341 0 0 0 -26.407612,-83.148963 61.689341,61.689341 0 0 0 -0.01309,-0.0068 z"
     style="fill:#000000;stroke-width:0.203736"
     id="path126" />
</svg>
