<?xml version="1.0" encoding="utf-8"?>
<!-- Generator: Adobe Illustrator 23.0.1, SVG Export Plug-In . SVG Version: 6.00 Build 0)  -->
<svg version="1.1" id="Layer_1" xmlns="http://www.w3.org/2000/svg" xmlns:xlink="http://www.w3.org/1999/xlink" x="0px" y="0px"
	 viewBox="0 0 512 512" style="enable-background:new 0 0 512 512;" xml:space="preserve">
<g>
	<path d="M429.44,428.39H88.11c-10.2,0-18.5-8.3-18.5-18.5V68.56c0-10.2,8.3-18.5,18.5-18.5h341.33c10.2,0,18.5,8.3,18.5,18.5
		v341.33C447.94,420.09,439.65,428.39,429.44,428.39z M88.11,63.06c-3.03,0-5.5,2.47-5.5,5.5v341.33c0,3.03,2.47,5.5,5.5,5.5h341.33
		c3.03,0,5.5-2.47,5.5-5.5V68.56c0-3.03-2.47-5.5-5.5-5.5H88.11z"/>
</g>
<path d="M351.37,96.41H170.15c-6.84,0-13.37,1.31-19.37,3.67c-20.26,7.26-34.8,26.64-34.8,49.37c0,23.5,15.55,43.44,36.9,50.08
	c5.42,1.87,11.22,2.89,17.27,2.89h181.22c29.27,0,53-23.73,53-53C404.37,120.14,380.64,96.41,351.37,96.41z M207.83,149.44
	c0,21.74-17.69,39.43-39.43,39.43c-21.74,0-39.43-17.69-39.43-39.43s17.69-39.43,39.43-39.43
	C190.15,110.02,207.83,127.71,207.83,149.44z"/>
<path d="M405.54,307.6c0-23.5-15.55-43.44-36.9-50.08c-5.42-1.87-11.22-2.89-17.27-2.89H170.15c-29.27,0-53,23.73-53,53
	c0,29.27,23.73,53,53,53h181.22c6.84,0,13.37-1.31,19.37-3.67C391,349.71,405.54,330.33,405.54,307.6z M353.12,347.03
	c-21.74,0-39.43-17.69-39.43-39.43s17.69-39.43,39.43-39.43c3.99,0,7.84,0.6,11.47,1.71c15.58,5.47,26.79,20.32,26.79,37.75
	c0,16.88-10.52,31.34-25.34,37.21C361.99,346.25,357.64,347.03,353.12,347.03z M130.15,307.63c0-22.06,17.95-40,40-40h149.1
	c-11.34,9.62-18.56,23.97-18.56,39.97c0,16.04,7.25,30.41,18.63,40.04H170.15C148.09,347.64,130.15,329.69,130.15,307.63z"/>
</svg>
