<?xml version="1.0" encoding="utf-8"?>
<!-- Generator: Adobe Illustrator 23.0.1, SVG Export Plug-In . SVG Version: 6.00 Build 0)  -->
<svg version="1.1" id="Layer_1" xmlns="http://www.w3.org/2000/svg" xmlns:xlink="http://www.w3.org/1999/xlink" x="0px" y="0px"
	 viewBox="0 0 512 512" style="enable-background:new 0 0 512 512;" xml:space="preserve">
<path d="M377.18,299.23c-16.76-31.02-35.48-55.5-55.31-72.85c24.71-20.52,40.48-51.46,40.48-86.02
	c0-61.64-50.14-111.78-111.78-111.78S138.79,78.73,138.79,140.36c0,34.56,15.77,65.5,40.48,86.02
	c-19.83,17.35-38.55,41.83-55.31,72.85c-31.14,57.65-50.49,129.86-50.49,188.44h16c0-56.08,18.61-125.38,48.57-180.83
	c15.48-28.65,33.45-52.35,51.97-68.54c0.91-0.79,1.81-1.56,2.72-2.31c16.88,10.25,36.68,16.16,57.84,16.16s40.95-5.91,57.84-16.16
	c0.91,0.75,1.81,1.52,2.72,2.31c18.53,16.19,36.5,39.89,51.97,68.54c29.96,55.46,48.57,124.75,48.57,180.83h16
	C427.67,429.09,408.32,356.88,377.18,299.23z M154.79,140.36c0-52.81,42.97-95.78,95.78-95.78s95.78,42.97,95.78,95.78
	c0,52.81-42.97,95.78-95.78,95.78S154.79,193.17,154.79,140.36z"/>
</svg>
